<svg id="Calque_1" data-name="Calque 1" xmlns="http://www.w3.org/2000/svg" viewBox="0 0 512 315"><defs><style>.cls-1{fill:#ff983b;}.cls-2{fill:#ff6344;}.cls-3{fill:#f4eee0;}.cls-4{fill:#28d05b;}.cls-5{fill:#ff5368;}</style></defs><title>sandwich</title><path class="cls-1" d="M456.82,325.48c-23.41-22.36-56.53-36.31-93.25-36.31H148.43c-36.72,0-69.84,13.95-93.25,36.31-31.59,30.18-7.45,80,38.47,80h324.7C464.27,405.5,488.41,355.66,456.82,325.48Z" transform="translate(0 -98)"/><path class="cls-2" d="M456.82,325.48a127.34,127.34,0,0,0-24.2-18.09l-18.21,19.07,21.69,20.72c4.91,4.69,6.25,9.93,4,15.57-2.47,6.17-9.48,12.75-21.73,12.75H44.75c7.5,16.87,25.33,30,48.9,30h324.7C464.27,405.5,488.41,355.66,456.82,325.48Z" transform="translate(0 -98)"/><path class="cls-3" d="M477.83,276.93H34.17a25,25,0,0,0-25,25v11.22a25,25,0,0,0,25,25H477.83a25,25,0,0,0,25-25V301.93A25,25,0,0,0,477.83,276.93Z" transform="translate(0 -98)"/><path class="cls-4" d="M392.63,221.83H119.44c-39.48,0-77.12,15.36-103.57,42.27l-.11.11a10.61,10.61,0,0,0,1.91,16.56l.13.09A42,42,0,0,0,34.86,287a54.8,54.8,0,0,0,20.94-1c6.38-1.55,11.88-2,16.41-.91s7.87,3.82,10.55,7.91a28.4,28.4,0,0,0,5.5,6.15c.27.23.58.47.82.69l.68.63q.68.62,1.39,1.2A33.72,33.72,0,0,0,107.08,309a32,32,0,0,0,26.3-7.57,16,16,0,0,1,12.37-4,16.82,16.82,0,0,1,11.45,6.57,33.77,33.77,0,0,0,24.36,13.26,32.74,32.74,0,0,0,25.59-9.83,16.16,16.16,0,0,1,12.08-4.92,16.37,16.37,0,0,1,11.8,5.7,32.89,32.89,0,0,0,50,0,16.36,16.36,0,0,1,11.8-5.7,16.15,16.15,0,0,1,12.07,4.92,32.75,32.75,0,0,0,25.59,9.83,33.77,33.77,0,0,0,24.36-13.26,16.82,16.82,0,0,1,11.45-6.57,16,16,0,0,1,12.36,4A32,32,0,0,0,405,309a33.42,33.42,0,0,0,13-5.12,32.64,32.64,0,0,0,2.92-2.16c.47-.39.93-.79,1.39-1.21l.68-.63c.23-.22.55-.46.81-.69a28.4,28.4,0,0,0,5.5-6.15c2.69-4.09,6-6.81,10.55-7.91s10-.64,16.41.91a54.82,54.82,0,0,0,20.95,1,42,42,0,0,0,17.06-6.16,10.74,10.74,0,0,0,1.93-16.76C469.76,237.18,432.12,221.83,392.63,221.83Z" transform="translate(0 -98)"/><path class="cls-5" d="M165.06,240.2c0-20.29-34.9-36.73-77.95-36.73S9.17,219.91,9.17,240.2s34.9,36.73,77.95,36.73S165.06,260.48,165.06,240.2Z" transform="translate(0 -98)"/><path class="cls-5" d="M333.95,240.2c0-20.29-34.89-36.73-77.95-36.73s-77.95,16.45-77.95,36.73S213,276.93,256,276.93,333.95,260.48,333.95,240.2Z" transform="translate(0 -98)"/><path class="cls-5" d="M502.83,240.2c0-20.29-34.9-36.73-77.95-36.73s-77.95,16.45-77.95,36.73,34.9,36.73,77.95,36.73S502.83,260.48,502.83,240.2Z" transform="translate(0 -98)"/><path class="cls-1" d="M488,147.54c-27-25.89-65.29-42-107.7-42a160.39,160.39,0,0,0-63.55,12.95,162.46,162.46,0,0,0-124.25-1.19,160.7,160.7,0,0,0-60.7-11.76c-42.41,0-80.66,16.15-107.7,42-36.49,34.94-8.61,92.65,44.43,92.65h375C496.56,240.2,524.44,182.48,488,147.54Z" transform="translate(0 -98)"/><path class="cls-2" d="M488,147.54a146.48,146.48,0,0,0-23.7-18.39,30,30,0,0,0,3,40.05c9,8.61,8.07,17.42,5.71,23.3-3.43,8.55-13,17.69-29.4,17.69H14.38c9.72,17.2,29.12,30,54.1,30h375C496.56,240.2,524.44,182.48,488,147.54Z" transform="translate(0 -98)"/><path class="cls-2" d="M311.68,116.39l-.61-.23q-4.85-1.87-9.87-3.43l-.52-.16q-5.07-1.56-10.31-2.79l-.47-.11h-.05a11.45,11.45,0,0,0-9.34,1.87,144.65,144.65,0,0,0-13.65,11.52c-11.93,11.43-17,25.29-16.51,38.77l.21.43-.21-.42c0,.17,0,.34,0,.51.38,6,9.48,7.3,11.87,1.68,2.61-6.14,6-12.39,10.31-16.48a149.11,149.11,0,0,1,44.15-29.09Q314.21,117.38,311.68,116.39Z" transform="translate(0 -98)"/><path class="cls-2" d="M186.19,114.87l-.2-.07a158.61,158.61,0,0,0-24-6.48,11.75,11.75,0,0,0-9,1.94,145.51,145.51,0,0,0-15.37,12.8c-12.33,11.81-17.31,26.22-16.45,40.12.38,6,9.39,7.37,11.87,1.75a54.58,54.58,0,0,1,12.38-17.38,149.39,149.39,0,0,1,47-30.28C190.38,116.43,188.3,115.62,186.19,114.87Z" transform="translate(0 -98)"/><path d="M500.68,219.28a62.47,62.47,0,0,0,7-12.8c9.15-22.79,3.7-46.85-14.57-64.35C463.36,113.67,423.28,98,380.21,98a167.16,167.16,0,0,0-63.53,12.32,170.05,170.05,0,0,0-124.21-1.12A167.59,167.59,0,0,0,131.79,98c-43.07,0-83.15,15.67-112.86,44.13C.66,159.63-4.79,183.69,4.36,206.48a62.58,62.58,0,0,0,7,12.79C5,225.57,1.75,232.71,1.75,240.2c0,6.94,2.82,13.51,8.14,19.39-9.2,10.27-6.74,30.34,23.94,34.85,23.89,3.54,35-9.09,42.7,2.7,3.91,6.05,14.58,16.84,29.4,19.28a39.61,39.61,0,0,0,32.41-9.31c4.09-3.55,9.65-2.72,13,1.55a41.46,41.46,0,0,0,29.76,16.14,40.45,40.45,0,0,0,31.41-12,8.58,8.58,0,0,1,12.94.46c16.72,18.92,44.84,18.55,61.22,0a8.58,8.58,0,0,1,12.94-.46c17.64,17.75,45.84,15.63,61.17-4.11,3.5-4.5,9.09-4.94,13-1.56,14.48,12.59,37,14.2,54.42-1.79,10.63-8.73,7.09-16.64,26.25-12,12.07,3,25.71,2.21,36.91-2.48a17.33,17.33,0,0,1,3.95,11.09v11.22a17.52,17.52,0,0,1-17.49,17.5H34.23a17.52,17.52,0,0,1-17.49-17.5v-6.51a7.5,7.5,0,1,0-15,0v6.51a32.53,32.53,0,0,0,32.49,32.5H461.45a36.3,36.3,0,0,1-3.64,31.59c-8,13-22.81,20.76-39.51,20.76H93.7c-26.22,0-41.52-17.52-44.64-33.79A7.5,7.5,0,1,0,34.33,367,55.4,55.4,0,0,0,54,399.38C65,408.29,78.69,413,93.7,413H418.3c21.92,0,41.46-10.42,52.26-27.86a51.53,51.53,0,0,0,6.54-39.48h.67a32.53,32.53,0,0,0,32.49-32.5V301.93a32.63,32.63,0,0,0-6.77-19.82,18.08,18.08,0,0,0-1.34-22.56c5.3-5.87,8.11-12.43,8.11-19.36C510.25,232.72,507,225.57,500.68,219.28Zm-75.84,50.15c-34.05,0-59.62-10.37-67.71-21.73h86.34c18.13,0,34.78-6.35,47.16-17.24,2.51,2.67,4.63,6,4.63,9.74C495.26,254,466.34,269.43,424.84,269.43ZM16.74,240.2c0-3.71,2.09-7.05,4.63-9.75,12.39,10.89,29,17.25,47.16,17.25h86.34c-8.09,11.36-33.66,21.73-67.71,21.73C45.66,269.43,16.74,254,16.74,240.2ZM29.3,153c26.91-25.77,63.3-40,102.49-40a154.15,154.15,0,0,1,40.83,5.43c-16.87,9.29-38.25,25.07-46.37,43.47A7.5,7.5,0,1,0,140,168a47.17,47.17,0,0,1,10.7-15,141.14,141.14,0,0,1,44.61-28.75h0a155.35,155.35,0,0,1,102.44-4.7,154,154,0,0,0-30.39,22.62c-4.44,4.25-8.49,10.63-12,19a7.5,7.5,0,1,0,13.8,5.86c2.7-6.36,5.67-11.2,8.59-14a140.94,140.94,0,0,1,41.92-27.62h0A152,152,0,0,1,380.21,113c39.18,0,75.58,14.19,102.48,40,13.69,13.11,17.81,31,11,47.93-7.75,19.32-27.48,31.8-50.26,31.8H68.54c-22.78,0-42.51-12.48-50.26-31.8C11.49,184,15.61,166.07,29.3,153ZM323.71,247.7c-8.09,11.36-33.66,21.73-67.71,21.73s-59.62-10.37-67.71-21.73ZM21.57,269a98.06,98.06,0,0,0,26.69,10.77C36,281.15,15.21,276.3,21.57,269Zm397.06,24.69a40.59,40.59,0,0,1-4.81,3.92,24.72,24.72,0,0,1-30.26-1.86c-10.41-9-25.88-7.57-34.64,3.68-9.84,12.66-27.42,14.1-38.7,2.75a23.59,23.59,0,0,0-17.63-7.13,23.85,23.85,0,0,0-17.17,8.23c-10.65,12.05-28.18,12-38.75,0a23.55,23.55,0,0,0-34.81-1.11c-11.23,11.31-28.81,10-38.7-2.76-8.68-11.15-24.14-12.78-34.64-3.66-9.63,8.37-23,8-32.54.17-7.87-6.5-5.93-6.85-10.53-11.54,41.68.4,79.09-14,86-36.71h.27c10.95,35.89,94.66,47.85,142.58,25.26,14-6.61,23-15.4,26-25.26h.27c7.69,25.2,49.83,37.08,86.07,36.71C422.63,288.5,423,290.08,418.63,293.71Zm45.13-13.93A98,98,0,0,0,490.47,269c.83,1,1.46,1.64,1.33,3C491.39,275.87,478.29,281.42,463.76,279.79Z" transform="translate(0 -98)"/></svg>