<?xml version="1.0" encoding="iso-8859-1"?>
<!-- Generator: Adobe Illustrator 21.0.0, SVG Export Plug-In . SVG Version: 6.00 Build 0)  -->
<svg version="1.1" id="Calque_1" xmlns="http://www.w3.org/2000/svg" xmlns:xlink="http://www.w3.org/1999/xlink" x="0px" y="0px"
	 viewBox="0 0 267.656 338.718" style="enable-background:new 0 0 267.656 338.718;" xml:space="preserve">
<g>
	<path style="fill:#FFEE93;" d="M266.029,180.031c0,0-6.262,7.375-16.805,13.492c-6.984,4.055-17.019,6.445-17.019,6.445
		c24.758-37.859-4.645-95.25-4.645-95.25c-4.902,14.586-15.132,25.145-25.043,32.219c0,0,6.621-34.902-22.855-59.07
		c-26.973-22.11-20.633-77.863-20.633-77.863S63.084,69.679,67.064,136.937c0,0-20.34-12.484-26.972-32.219
		c0,0-29.403,57.391-4.641,95.25c0,0-10.039-2.39-17.023-6.445c-10.543-6.117-16.801-13.492-16.801-13.492
		s-17.442,75.066,61.898,111.961c62.426,29.031,70.301,46.722,70.301,46.722s7.875-17.691,70.301-46.718
		C283.471,255.097,266.029,180.031,266.029,180.031L266.029,180.031z M266.029,180.031"/>
	<path style="fill:#FDCD04;" d="M204.123,291.992c-62.422,29.031-70.297,46.726-70.297,46.726V20.996
		C148.123,7.914,159.025,0,159.025,0s-6.336,55.757,20.633,77.867c29.484,24.164,22.859,59.07,22.859,59.07
		c9.911-7.074,20.137-17.633,25.043-32.219c0,0,29.403,57.387,4.645,95.25c0,0,10.035-2.386,17.023-6.445
		c10.539-6.117,16.801-13.492,16.801-13.492S283.467,255.097,204.123,291.992L204.123,291.992z M204.123,291.992"/>
	<path style="fill:#FF9811;" d="M133.826,301.359c0,0-94.371-37.367-71.625-94.875c19.875-50.25,67.375-43.5,64.375-120.75
		c0,0,50.734,30,47.734,77.25c-3.468,54.684,27.766,57.75,45.266,55.75c0,0,1.5,34-51,50.5
		C144.736,276.726,133.826,301.359,133.826,301.359L133.826,301.359z M133.826,301.359"/>
	<path style="fill:#FF7956;" d="M168.572,269.238c-23.832,7.492-34.746,32.121-34.746,32.121V90.691
		c13.906,10.344,42.773,36.324,40.484,72.293c-3.472,54.684,27.766,57.75,45.262,55.746
		C219.572,218.73,221.072,252.738,168.572,269.238L168.572,269.238z M168.572,269.238"/>
</g>
</svg>
