<?xml version="1.0" encoding="iso-8859-1"?>
<!-- Generator: Adobe Illustrator 21.0.0, SVG Export Plug-In . SVG Version: 6.00 Build 0)  -->
<svg version="1.1" id="Capa_1" xmlns="http://www.w3.org/2000/svg" xmlns:xlink="http://www.w3.org/1999/xlink" x="0px" y="0px"
	 viewBox="2.2 244.857 409.6 304.287" style="enable-background:new 2.2 244.857 409.6 304.287;" xml:space="preserve">
<g>
	<path style="fill:#548EE2;" d="M206.728,244.857c-67.454,0-122.138,54.683-122.138,122.14v134.806h244.279V366.996
		C328.869,299.54,274.186,244.857,206.728,244.857z"/>
	<path style="fill:#64798A;" d="M342.738,501.802H70.719c-11.287,0-20.437,9.15-20.437,20.439v26.903h312.895v-26.903
		C363.177,510.953,354.026,501.802,342.738,501.802z"/>
	<path style="fill:#427CCE;" d="M258.17,397.015c0-34.335-23.031-62.169-51.441-62.169c-28.411,0-51.442,27.834-51.442,62.169
		c0,27.602,14.889,50.989,35.486,59.106v45.681h31.91v-45.681C243.281,448.004,258.17,424.617,258.17,397.015z"/>
	<g>
		<path style="fill:#548EE2;" d="M355.927,318.638c1.185,0,2.383-0.308,3.473-0.96l45.458-23.898
			c3.217-1.922,4.27-6.086,2.348-9.303c-1.919-3.218-6.088-4.271-9.304-2.349l-45.457,23.899c-3.218,1.921-4.271,6.085-2.349,9.303
			C351.366,317.459,353.619,318.638,355.927,318.638z"/>
		<path style="fill:#548EE2;" d="M404.858,442.297L359.4,418.4c-3.213-1.922-7.382-0.872-9.304,2.348
			c-1.922,3.218-0.869,7.382,2.349,9.304l45.457,23.898c1.09,0.652,2.288,0.96,3.472,0.96c2.309,0,4.561-1.18,5.831-3.308
			C409.128,448.383,408.076,444.219,404.858,442.297z"/>
		<path style="fill:#548EE2;" d="M405.015,365.406h-49.093c-3.747,0-6.785,3.038-6.785,6.786c0,3.747,3.038,6.786,6.785,6.786
			h49.093c3.747,0,6.785-3.038,6.785-6.786C411.8,368.443,408.762,365.406,405.015,365.406z"/>
		<path style="fill:#548EE2;" d="M58.073,318.638c-1.185,0-2.383-0.308-3.473-0.96L9.142,293.781
			c-3.217-1.922-4.27-6.086-2.348-9.303c1.919-3.218,6.088-4.271,9.304-2.349l45.458,23.899c3.218,1.921,4.27,6.085,2.349,9.303
			C62.634,317.459,60.381,318.638,58.073,318.638z"/>
		<path style="fill:#548EE2;" d="M9.142,442.297L54.6,418.4c3.213-1.922,7.382-0.872,9.304,2.348
			c1.921,3.218,0.869,7.382-2.349,9.304l-45.458,23.898c-1.089,0.652-2.288,0.96-3.472,0.96c-2.309,0-4.561-1.18-5.831-3.308
			C4.872,448.383,5.924,444.219,9.142,442.297z"/>
		<path style="fill:#548EE2;" d="M8.986,365.406h49.092c3.747,0,6.786,3.038,6.786,6.786c0,3.747-3.038,6.786-6.786,6.786H8.986
			c-3.748,0-6.786-3.038-6.786-6.786C2.2,368.443,5.238,365.406,8.986,365.406z"/>
	</g>
</g>
</svg>
